<?xml version="1.0" encoding="UTF-8"?>
<svg id="uuid-76f8c668-e7db-4bb7-a037-21a3d3d0cb0d" xmlns="http://www.w3.org/2000/svg" viewBox="0 0 25.95 26">
  <g id="uuid-e739d52f-59d5-4514-b2cc-969279f76b3e">
    <path d="M11.46,3.86c-3.05,0-5.8,1.86-7.01,4.73-.07.17-.06.36.05.52.1.16.27.25.46.25h13.04c.19,0,.35-.09.46-.25.1-.16.12-.35.05-.52-1.18-2.87-3.94-4.73-7.03-4.74M11.47,4.97c2,0,3.86.91,5.09,2.48l.64.81H5.77l.65-.81c1.26-1.57,3.1-2.47,5.04-2.47h.01Z"/>
    <path d="M11.46,0c-3.02,0-5.87,1.19-8.04,3.36C1.22,5.56,0,8.47,0,11.56v13.88c0,.31.25.55.55.55h12.97c.31,0,.55-.25.55-.55v-2.5h3.71c2.46,0,4.59-1.76,5.05-4.18l.08-.41h2.48c.19,0,.36-.09.47-.26.1-.16.12-.36.03-.53l-2.97-6.27c-.06-3.02-1.25-5.82-3.35-7.92C17.41,1.2,14.54,0,11.48,0M11.48,1.11c2.76,0,5.36,1.08,7.31,3.04,1.95,1.96,3.03,4.56,3.03,7.32,0,.08.02.16.05.24l2.64,5.54h-2.14c-.31,0-.55.25-.55.55,0,2.22-1.81,4.03-4.03,4.03h-4.26c-.31,0-.55.25-.55.55v2.5H1.11v-13.33c0-2.79,1.1-5.43,3.1-7.42,1.96-1.96,4.54-3.03,7.26-3.03h.02Z"/>
  </g>
</svg>
