<svg width="27" height="27" viewBox="0 0 27 27" fill="none" xmlns="http://www.w3.org/2000/svg">
<g clip-path="url(#clip0_2830_2567)">
<path d="M12.0176 0.25H12.0391C15.1637 0.255731 18.0989 1.47704 20.3066 3.69043C22.4582 5.84726 23.6672 8.69463 23.7275 11.7324L23.7285 11.7861L23.752 11.835L26.6729 17.9561C26.9268 18.4896 26.5368 19.1072 25.9463 19.1074H23.6748L23.6357 19.3105C23.1627 21.8027 20.969 23.6923 18.3438 23.6924H14.8838V25.9453C14.8838 26.3896 14.5232 26.7498 14.0791 26.75H1.10938C0.664896 26.75 0.304688 26.3898 0.304688 25.9453V12.0645C0.304737 8.90476 1.57408 5.90275 3.7998 3.68066C6.01776 1.46682 8.93565 0.25005 12.0176 0.25ZM12.0176 1.85938C9.36283 1.85948 6.8484 2.91181 4.93652 4.82031C2.98813 6.76522 1.91411 9.33867 1.91406 12.0645V25.1406H13.2744V22.8877C13.2744 22.4432 13.6346 22.083 14.0791 22.083H18.3438C20.4269 22.0829 22.1209 20.3872 22.1211 18.3027C22.1211 17.8584 22.4816 17.498 22.9258 17.498H24.6709L24.5 17.1396L22.1992 12.3174C22.1478 12.2093 22.1211 12.0911 22.1211 11.9717C22.1211 9.27416 21.0712 6.73602 19.167 4.82715C17.2633 2.91864 14.7301 1.86428 12.0361 1.85938H12.0176ZM12.0166 4.10938H12.0303C15.2685 4.11516 18.1065 6.09982 19.2949 9.00293C19.5113 9.53127 19.1221 10.1121 18.5508 10.1123H5.51465C4.93829 10.1121 4.55069 9.52378 4.77344 8.99512C5.97077 6.15377 8.77559 4.10943 12.0166 4.10938ZM12.0166 5.71875C10.0837 5.71879 8.33805 6.63664 7.16797 8.09668L6.8418 8.50293H17.2432L16.9248 8.09863C15.7607 6.61915 13.9747 5.72231 12.0283 5.71875H12.0166Z" fill="black" stroke="white" stroke-width="0.5"/>
</g>
<defs>
<clipPath id="clip0_2830_2567">
<rect width="27" height="27" fill="white"/>
</clipPath>
</defs>
</svg>
