<svg height="512pt" viewBox="-1 0 512 512" width="512pt" xmlns="http://www.w3.org/2000/svg"><path d="m509.03125 338.453125-55.382812-116.066406c-1.167969-58.828125-24.589844-113.988281-66.253907-155.753907-42.753906-42.863281-99.621093-66.523437-160.132812-66.632812-.140625 0-.265625 0-.40625 0-59.722657 0-116.25 23.59375-159.183594 66.449219-43.082031 43.011719-67.671875 101.132812-67.671875 162.332031v263.21875c0 11.046875 8.953125 20 20 20h245.9375c11.042969 0 20-8.953125 20-20v-37.980469h60.875c52.109375 0 95.625-37.5 105.011719-86.949219h39.15625c14.6875-.003906 24.375-15.351562 18.050781-28.617187zm-75.335938-11.386719c-11.042968 0-19.996093 8.957032-19.996093 20 0 36.917969-30.003907 66.953125-66.886719 66.953125h-80.875c-11.046875 0-20 8.953125-20 20v37.980469h-205.941406v-243.21875c0-50.417969 19.863281-98.015625 55.933594-134.019531 35.386718-35.324219 81.867187-54.761719 130.929687-54.761719h.332031c49.832032.089844 96.671875 19.578125 131.886719 54.882812 35.222656 35.308594 54.617187 82.230469 54.617187 132.128907 0 2.976562.667969 5.921875 1.949219 8.609375l43.632813 91.445312zm-206.585937-253.878906c-.011719 0-.023437 0-.035156 0h-.238281c-63.503907 0-118.332032 40.039062-141.722657 95.554688-5.535156 13.136718 4.089844 27.765624 18.429688 27.765624h247.191406c14.207031 0 23.890625-14.433593 18.507813-27.574218-23.246094-56.792969-78.757813-95.632813-142.132813-95.746094zm-88.527344 83.320312c21.359375-26.65625 53.144531-43.320312 88.253907-43.320312h.203124c35.441407.0625 67.949219 16.386719 89.140626 43.320312zm0 0"/></svg>
